<?xml version="1.0" standalone="no"?>
<!DOCTYPE svg PUBLIC "-//W3C//DTD SVG 20010904//EN"
 "http://www.w3.org/TR/2001/REC-SVG-20010904/DTD/svg10.dtd">
<svg version="1.0" xmlns="http://www.w3.org/2000/svg"
 width="500.000000pt" height="500.000000pt" viewBox="0 0 500.000000 500.000000"
 preserveAspectRatio="xMidYMid meet">
<metadata>
Created by potrace 1.11, written by Peter Selinger 2001-2013
</metadata>
<g transform="translate(0.000000,500.000000) scale(0.100000,-0.100000)"
fill="#000000" stroke="none">
<path d="M0 2500 l0 -2500 2500 0 2500 0 0 2500 0 2500 -2500 0 -2500 0 0
-2500z m1018 1434 c147 -30 257 -114 303 -232 33 -84 33 -243 -1 -327 -29 -75
-123 -172 -192 -201 -27 -10 -48 -21 -48 -24 0 -3 19 -14 41 -24 25 -11 54
-37 73 -63 17 -24 74 -157 127 -294 l97 -249 -138 0 -137 0 -99 256 c-130 340
-123 334 -391 334 l-153 0 0 -1420 0 -1420 -130 0 -130 0 0 1840 0 1840 350 0
c281 0 366 -3 428 -16z m2375 -413 c78 -20 163 -57 207 -91 l24 -18 -34 -86
c-34 -85 -47 -99 -69 -72 -6 7 -42 27 -79 44 -146 68 -287 68 -354 2 -36 -37
-39 -96 -5 -128 30 -28 54 -36 214 -73 76 -17 161 -42 188 -55 104 -48 156
-128 156 -238 0 -77 -19 -128 -69 -179 -84 -87 -204 -122 -392 -114 -137 7
-215 24 -299 67 -99 51 -96 43 -60 135 18 44 34 82 35 84 2 2 34 -12 71 -32
88 -46 159 -66 258 -73 150 -12 245 38 230 121 -10 60 -67 87 -289 136 -183
40 -272 108 -296 226 -34 163 86 314 283 352 78 16 200 12 280 -8z m-1501
-343 c3 -335 4 -355 24 -388 33 -58 76 -80 153 -80 77 0 131 22 178 70 59 60
63 89 63 437 l0 313 130 0 130 0 0 -505 0 -505 -125 0 -125 0 0 71 0 71 -45
-47 c-25 -25 -71 -58 -103 -73 -50 -24 -69 -27 -162 -27 -127 0 -188 18 -254
76 -52 46 -89 118 -105 203 -7 36 -11 196 -11 398 l0 338 125 0 124 0 3 -352z
m2808 267 l0 -85 -280 -320 -280 -320 288 -2 287 -3 3 -97 3 -98 -441 0 -440
0 0 91 0 91 275 314 275 314 -270 0 -270 0 0 100 0 100 425 0 425 0 0 -85z"/>
<path d="M500 3529 l0 -220 223 3 c210 3 225 4 270 27 69 34 100 85 105 173 5
83 -15 146 -59 182 -55 46 -113 56 -336 56 l-203 0 0 -221z"/>
</g>
</svg>
